{
  "accessors": [
    {
      "bufferView": 2,
      "componentType": 5126,
      "count": 232,
      "max": [
        0.246411994099617,
        0.4504829943180084,
        1.476133942604065
      ],
      "min": [
        -0.24752099812030792,
        -0.4504829943180084,
        0.016016999259591103
      ],
      "type": "VEC3"
    },
    {
      "bufferView": 2,
      "byteOffset": 2784,
      "componentType": 5126,
      "count": 232,
      "type": "VEC3"
    },
    {
      "bufferView": 3,
      "componentType": 5126,
      "count": 232,
      "type": "VEC4"
    },
    {
      "bufferView": 1,
      "componentType": 5126,
      "count": 232,
      "type": "VEC2"
    },
    {
      "bufferView": 0,
      "componentType": 5125,
      "count": 1020,
      "type": "SCALAR"
    },
    {
      "bufferView": 2,
      "byteOffset": 5568,
      "componentType": 5126,
      "count": 145,
      "max": [
        0.1987220048904419,
        0.1987220048904419,
        1.9184410572052002
      ],
      "min": [
        -0.1987220048904419,
        -0.1987220048904419,
        1.5809470415115356
      ],
      "type": "VEC3"
    },
    {
      "bufferView": 2,
      "byteOffset": 7308,
      "componentType": 5126,
      "count": 145,
      "type": "VEC3"
    },
    {
      "bufferView": 3,
      "byteOffset": 3712,
      "componentType": 5126,
      "count": 145,
      "type": "VEC4"
    },
    {
      "bufferView": 1,
      "byteOffset": 1856,
      "componentType": 5126,
      "count": 145,
      "type": "VEC2"
    },
    {
      "bufferView": 0,
      "byteOffset": 4080,
      "componentType": 5125,
      "count": 588,
      "type": "SCALAR"
    },
    {
      "bufferView": 2,
      "byteOffset": 9048,
      "componentType": 5126,
      "count": 461,
      "max": [
        0.2522670030593872,
        0.46109700202941895,
        1.6410239934921265
      ],
      "min": [
        -0.25335198640823364,
        -0.46109700202941895,
        0.0
      ],
      "type": "VEC3"
    },
    {
      "bufferView": 2,
      "byteOffset": 14580,
      "componentType": 5126,
      "count": 461,
      "type": "VEC3"
    },
    {
      "bufferView": 3,
      "byteOffset": 6032,
      "componentType": 5126,
      "count": 461,
      "type": "VEC4"
    },
    {
      "bufferView": 1,
      "byteOffset": 3016,
      "componentType": 5126,
      "count": 461,
      "type": "VEC2"
    },
    {
      "bufferView": 0,
      "byteOffset": 6432,
      "componentType": 5125,
      "count": 2052,
      "type": "SCALAR"
    }
  ],
  "asset": {
    "generator": "fab-model-conversion",
    "version": "2.0"
  },
  "bufferViews": [
    {
      "buffer": 0,
      "byteLength": 14640,
      "target": 34963
    },
    {
      "buffer": 0,
      "byteLength": 6704,
      "byteOffset": 14640,
      "byteStride": 8,
      "target": 34962
    },
    {
      "buffer": 0,
      "byteLength": 20112,
      "byteOffset": 21344,
      "byteStride": 12,
      "target": 34962
    },
    {
      "buffer": 0,
      "byteLength": 13408,
      "byteOffset": 41456,
      "byteStride": 16,
      "target": 34962
    }
  ],
  "buffers": [
    {
      "byteLength": 54864,
      "uri": "scene.bin"
    }
  ],
  "images": [
    {
      "uri": "textures/M_bottle_baseColor.png"
    },
    {
      "uri": "textures/M_bottle_metallicRoughness.jpeg"
    },
    {
      "uri": "textures/M_bottle_normal.png"
    },
    {
      "uri": "textures/M_cap_baseColor.jpeg"
    },
    {
      "uri": "textures/M_cap_metallicRoughness.jpeg"
    },
    {
      "uri": "textures/M_cap_normal.png"
    },
    {
      "uri": "textures/M_fluid_baseColor.png"
    },
    {
      "uri": "textures/M_fluid_metallicRoughness.jpeg"
    },
    {
      "uri": "textures/M_fluid_normal.png"
    }
  ],
  "materials": [
    {
      "alphaMode": "BLEND",
      "doubleSided": true,
      "name": "M_bottle",
      "normalTexture": {
        "index": 2
      },
      "occlusionTexture": {
        "index": 1
      },
      "pbrMetallicRoughness": {
        "baseColorTexture": {
          "index": 0
        },
        "metallicRoughnessTexture": {
          "index": 1
        }
      }
    },
    {
      "doubleSided": true,
      "name": "M_cap",
      "normalTexture": {
        "index": 5
      },
      "occlusionTexture": {
        "index": 4
      },
      "pbrMetallicRoughness": {
        "baseColorTexture": {
          "index": 3
        },
        "metallicRoughnessTexture": {
          "index": 4
        }
      }
    },
    {
      "alphaMode": "BLEND",
      "doubleSided": true,
      "name": "M_fluid",
      "normalTexture": {
        "index": 8
      },
      "occlusionTexture": {
        "index": 7
      },
      "pbrMetallicRoughness": {
        "baseColorTexture": {
          "index": 6
        },
        "metallicRoughnessTexture": {
          "index": 7
        }
      }
    }
  ],
  "meshes": [
    {
      "name": "defaultMaterial",
      "primitives": [
        {
          "attributes": {
            "NORMAL": 1,
            "POSITION": 0,
            "TANGENT": 2,
            "TEXCOORD_0": 3
          },
          "indices": 4,
          "material": 2,
          "mode": 4
        }
      ]
    },
    {
      "name": "defaultMaterial",
      "primitives": [
        {
          "attributes": {
            "NORMAL": 6,
            "POSITION": 5,
            "TANGENT": 7,
            "TEXCOORD_0": 8
          },
          "indices": 9,
          "material": 1,
          "mode": 4
        }
      ]
    },
    {
      "name": "defaultMaterial",
      "primitives": [
        {
          "attributes": {
            "NORMAL": 11,
            "POSITION": 10,
            "TANGENT": 12,
            "TEXCOORD_0": 13
          },
          "indices": 14,
          "material": 0,
          "mode": 4
        }
      ]
    }
  ],
  "nodes": [
    {
      "children": [
        1
      ],
      "matrix": [
        1.0,
        0.0,
        0.0,
        0.0,
        0.0,
        2.220446049250313e-16,
        -1.0,
        0.0,
        0.0,
        1.0,
        2.220446049250313e-16,
        0.0,
        0.0,
        0.0,
        0.0,
        1.0
      ],
      "name": "Sketchfab_model"
    },
    {
      "children": [
        2,
        4,
        6
      ],
      "matrix": [
        1.0,
        0.0,
        0.0,
        0.0,
        0.0,
        -4.371139006309477e-08,
        0.999999999999999,
        0.0,
        0.0,
        -0.999999999999999,
        -4.371139006309477e-08,
        0.0,
        0.0,
        0.0,
        0.0,
        1.0
      ],
      "name": "Collada visual scene group"
    },
    {
      "children": [
        3
      ],
      "matrix": [
        100.0,
        0.0,
        0.0,
        0.0,
        0.0,
        -1.6e-05,
        -100.0,
        0.0,
        0.0,
        100.0,
        -1.6e-05,
        0.0,
        -2.399663,
        -5.221778,
        0.365314,
        1.0
      ],
      "name": "SM_fluid"
    },
    {
      "mesh": 0,
      "name": "defaultMaterial"
    },
    {
      "children": [
        5
      ],
      "matrix": [
        100.0,
        0.0,
        0.0,
        0.0,
        0.0,
        -1.6e-05,
        -100.0,
        0.0,
        0.0,
        100.0,
        -1.6e-05,
        0.0,
        -2.399663,
        -5.221772,
        0.365314,
        1.0
      ],
      "name": "SM_cap"
    },
    {
      "mesh": 1,
      "name": "defaultMaterial"
    },
    {
      "children": [
        7
      ],
      "matrix": [
        100.0,
        0.0,
        0.0,
        0.0,
        0.0,
        -1.6e-05,
        -100.0,
        0.0,
        0.0,
        100.0,
        -1.6e-05,
        0.0,
        -2.399663,
        -5.221778,
        0.365314,
        1.0
      ],
      "name": "SM_bottle"
    },
    {
      "mesh": 2,
      "name": "defaultMaterial"
    }
  ],
  "samplers": [
    {
      "magFilter": 9729,
      "minFilter": 9987,
      "wrapS": 10497,
      "wrapT": 10497
    }
  ],
  "scene": 0,
  "scenes": [
    {
      "name": "Sketchfab_Scene",
      "nodes": [
        0
      ]
    }
  ],
  "textures": [
    {
      "sampler": 0,
      "source": 0
    },
    {
      "sampler": 0,
      "source": 1
    },
    {
      "sampler": 0,
      "source": 2
    },
    {
      "sampler": 0,
      "source": 3
    },
    {
      "sampler": 0,
      "source": 4
    },
    {
      "sampler": 0,
      "source": 5
    },
    {
      "sampler": 0,
      "source": 6
    },
    {
      "sampler": 0,
      "source": 7
    },
    {
      "sampler": 0,
      "source": 8
    }
  ]
}
